<svg width="16" height="17" viewBox="0 0 16 17" fill="none" xmlns="http://www.w3.org/2000/svg">
<path fill-rule="evenodd" clip-rule="evenodd" d="M3.82053 13.4501C3.97083 13.5855 4.0746 13.6828 4.39524 13.9874C4.70931 14.2857 4.86119 14.4267 5.00007 14.5446C5.05799 14.5934 5.10737 14.7238 5.12693 14.9178C5.14303 15.0773 5.13743 15.2553 5.11791 15.4268C5.11117 15.4861 5.10466 15.5289 5.10093 15.5493C5.05906 15.778 5.23342 15.9894 5.466 15.9917C5.6753 15.9939 5.83657 15.9965 6.26341 16.0041C6.37021 16.006 6.37021 16.006 6.47737 16.0078C7.63766 16.0278 8.23027 16.0223 8.65559 15.9688C9.11021 15.9117 9.57841 15.3626 9.98314 14.6737C10.3261 15.2833 10.8018 15.8786 11.2821 15.956C11.4347 15.9804 11.6194 15.9879 11.8333 15.983C11.9929 15.9793 12.1617 15.9688 12.332 15.9536C12.4605 15.9421 12.5629 15.9306 12.624 15.9226C12.8499 15.8933 12.9978 15.671 12.9374 15.4514C12.9244 15.4039 12.9034 15.3169 12.8823 15.2073C12.8578 15.0802 12.8401 14.9561 12.832 14.8431C12.8269 14.7714 12.8259 14.7065 12.8292 14.6504C12.8348 14.5526 12.8366 14.4979 12.8393 14.3713C12.8404 14.3242 12.8404 14.3242 12.8418 14.283C12.847 14.1482 12.8652 14.0201 12.9238 13.7408C12.949 13.6196 13.0711 13.3876 13.2634 13.1006C13.3207 13.0151 13.3833 12.9258 13.4504 12.8336C13.5776 12.6588 13.7145 12.4822 13.8514 12.3132C13.9335 12.212 13.9969 12.1363 14.0322 12.0951C14.3285 11.6707 14.6443 10.976 14.7604 10.5698C14.8718 10.1794 14.9609 9.4604 15.0157 8.75373C15.0457 8.35284 15.0568 8.02968 15.0568 7.52275C15.0569 7.43384 15.0569 7.43384 15.057 7.36041C15.0573 7.24015 15.0573 7.19467 15.0569 7.13845C15.0558 6.98487 15.0514 6.83265 15.0365 6.44443C15.0046 5.63078 14.5587 5.10474 13.9017 5.00327C13.3427 4.91695 12.6623 5.38123 12.6623 5.38123C12.6623 5.38123 12.5108 4.85842 12.4086 4.69702C12.2424 4.43767 11.8144 4.10719 11.4872 4.04281C11.1507 3.97747 10.7518 3.98469 10.3855 4.04949C10.0647 4.10689 9.74514 4.39331 9.5603 4.70226C9.42806 4.92265 9.55243 4.69057 9.42017 4.46258C9.23712 4.14856 8.81084 3.86735 8.40492 3.78436C8.06096 3.71323 7.66691 3.74032 7.30697 3.84729C6.84393 3.98566 6.77022 4.33803 6.7518 4.23714C6.69022 3.8989 6.68453 3.92113 6.64615 3.67984C6.50357 2.78457 6.34401 2.16511 6.10208 1.62456C6.116 1.65564 6.01347 1.42241 5.97616 1.34199C5.91155 1.20274 5.84706 1.0767 5.77617 0.955471C5.55766 0.581821 5.30725 0.302061 4.99307 0.143132C4.44746 -0.133162 3.62966 0.00130096 3.24202 0.45378C2.85706 0.903448 2.79287 1.65527 2.88982 2.58562C2.92685 2.94683 3.05661 3.60628 3.17427 4.09374C3.21588 4.26293 3.25233 4.41723 3.31919 4.70226C3.33068 4.75074 3.33068 4.75074 3.34228 4.79924C3.394 5.01496 3.43936 5.19244 3.49351 5.3872C3.48782 5.3669 3.59052 5.73129 3.61239 5.81193C3.61967 5.83885 3.61967 5.83885 3.62688 5.86588C3.6677 6.01966 3.70762 6.18548 3.76998 6.46219C3.8041 6.61434 3.8374 6.77688 3.86997 6.94918C3.95881 7.41911 3.95925 7.32126 3.87373 7.22105C3.81466 7.15182 3.7591 7.08895 3.70543 7.03101C3.60566 6.92331 3.51394 6.83424 3.42687 6.7632C2.79247 6.24414 2.40374 6.0148 1.87005 5.96441C0.994634 5.88031 0.163852 6.49868 0.0389336 7.33324C-0.0378933 7.84494 -0.0131427 8.08047 0.223569 8.53267C0.353832 8.777 0.574177 9.07209 0.985297 9.58002C1.01046 9.61109 1.01046 9.61109 1.0356 9.64209C1.54025 10.264 1.59522 10.333 1.71522 10.5068C2.03957 10.9775 2.82917 12.329 2.9727 12.5104L3.82053 13.4501Z" fill="black"/>
<path fill-rule="evenodd" clip-rule="evenodd" d="M1.61839 9.16949C1.5935 9.13881 1.5935 9.13881 1.56868 9.10816C1.19139 8.64202 0.9845 8.36495 0.887117 8.18231C0.7343 7.89036 0.725986 7.81124 0.781059 7.44442C0.845793 7.01195 1.31288 6.66429 1.79935 6.71103C2.13596 6.74281 2.43004 6.91631 2.95275 7.34398C3.00935 7.39016 3.07758 7.45642 3.15563 7.54068C3.2018 7.59052 3.25077 7.64593 3.30364 7.70788C3.38304 7.80094 3.65066 8.1284 3.61125 8.08075C3.66939 8.15067 3.71097 8.20483 3.75847 8.2712C3.85257 8.40554 3.90552 8.48015 3.97722 8.57575C3.9436 8.53087 4.19195 8.87418 4.24454 8.92438C4.52314 9.19031 4.92657 8.96634 4.9013 8.61193C4.89708 8.55277 4.88317 8.48885 4.85412 8.37726C4.73924 7.55803 4.69906 7.29508 4.60734 6.80986C4.57326 6.62962 4.53828 6.45888 4.50212 6.29767C4.43777 6.0121 4.39577 5.8376 4.35218 5.67342C4.34443 5.64435 4.34443 5.64435 4.33665 5.61559C4.31365 5.53077 4.2094 5.16088 4.21634 5.1857C4.165 5.00102 4.1218 4.83196 4.07202 4.62436C4.06072 4.57707 4.06072 4.57707 4.04943 4.52946C3.98293 4.24595 3.94555 4.0877 3.90336 3.91619C3.79338 3.46051 3.66911 2.82899 3.63626 2.50851C3.56079 1.78429 3.61287 1.17432 3.81208 0.941621C3.96763 0.760054 4.40849 0.687567 4.6548 0.812296C4.81588 0.893777 4.97684 1.07361 5.12915 1.33407C5.1868 1.43264 5.24088 1.53833 5.29624 1.65764C5.32976 1.7299 5.42916 1.95601 5.41797 1.93101C5.62829 2.40093 5.77277 2.96188 5.90588 3.79772C5.94528 4.04539 5.99402 4.32596 6.05652 4.66923C6.0751 4.77102 6.0751 4.77102 6.09375 4.87237C6.39514 6.50771 6.37309 6.38377 6.37742 6.5142C6.39323 6.98998 7.09553 7.00112 7.12642 6.52608C7.13622 6.37543 7.13274 6.24092 7.11535 5.85462C7.11289 5.79997 7.11289 5.79997 7.11053 5.74552C7.09531 5.38961 7.09619 5.18485 7.11723 5.06846C7.15558 4.85623 7.3461 4.61848 7.52158 4.56605C7.768 4.49281 8.03798 4.47425 8.25428 4.51898C8.46132 4.56131 8.70293 4.72069 8.77224 4.8396C8.85578 4.9836 8.9274 5.20298 8.9823 5.47491C9.02662 5.69439 9.05711 5.92984 9.07856 6.18115C9.08523 6.25934 9.08959 6.31975 9.09628 6.4197C9.09913 6.46153 9.09913 6.46153 9.10197 6.49605C9.10357 6.51336 9.10357 6.51336 9.10748 6.54072C9.11052 6.5599 9.11052 6.5599 9.12482 6.60846C9.1321 6.74628 9.1321 6.74628 9.68564 6.79739C9.85094 6.59756 9.85094 6.59756 9.84641 6.56252C9.87349 6.44418 9.89007 6.31226 9.91369 6.06439C9.92877 5.90326 9.93638 5.82405 9.94526 5.74189C9.98206 5.40177 10.0288 5.18567 10.0858 5.09068C10.1565 4.97249 10.4056 4.80787 10.5173 4.78788C10.7978 4.73826 11.1059 4.73268 11.3437 4.77887C11.4515 4.80007 11.7143 5.00301 11.7765 5.10008C11.9042 5.30164 12.0284 5.95146 12.0984 6.5962C12.0874 6.63849 12.0874 6.63849 12.2591 6.8838C12.8495 6.8165 12.8495 6.8165 12.8329 6.70991C12.8485 6.67192 12.8608 6.62799 12.8784 6.55977C12.9206 6.40006 12.9486 6.30733 12.9902 6.20341C13.019 6.13152 13.0494 6.07006 13.0806 6.02113C13.2012 5.8312 13.5136 5.70217 13.7876 5.74448C14.0819 5.78992 14.2694 6.01113 14.2875 6.47345C14.302 6.85388 14.3063 7.00013 14.3073 7.14368C14.3077 7.19664 14.3077 7.23916 14.3074 7.35877C14.3073 7.43268 14.3073 7.43268 14.3072 7.52275C14.3072 8.01167 14.2967 8.31628 14.2683 8.69675C14.2176 9.35002 14.1322 10.0396 14.0396 10.3638C13.9452 10.6944 13.6632 11.3147 13.4399 11.6373C13.424 11.6526 13.3561 11.7338 13.2692 11.841C13.1246 12.0194 12.9799 12.206 12.8444 12.3923C12.7718 12.492 12.7037 12.5892 12.6407 12.6832C12.397 13.0469 12.2407 13.3439 12.1901 13.5874C12.1236 13.9039 12.0999 14.0717 12.0927 14.2536C12.091 14.3052 12.091 14.3052 12.0899 14.3551C12.0873 14.4732 12.0858 14.5208 12.0808 14.6072C12.0756 14.6978 12.0771 14.7943 12.0843 14.8963C12.0947 15.0423 12.0843 15.2418 12.0843 15.2418C12.0843 15.2418 11.9577 15.2299 11.8165 15.2332C11.644 15.2372 11.5005 15.2313 11.4014 15.2154C11.2583 15.1924 10.872 14.709 10.6742 14.3324C10.3719 13.756 9.63816 13.7839 9.33737 14.293C9.06607 14.7548 8.67772 15.2102 8.56244 15.2247C8.18783 15.2718 7.60772 15.2771 6.49068 15.2579C6.38388 15.2561 6.38388 15.2561 6.27719 15.2542C5.84829 15.2465 5.86478 15.3189 5.87356 15.2418C5.89863 15.0215 5.89578 15.0627 5.87356 14.8425C5.8363 14.4731 5.7223 14.172 5.48479 13.9719C5.36192 13.8676 5.21496 13.7312 4.91978 13.4508C4.58256 13.1305 4.47694 13.0315 4.34679 12.9171L3.54549 12.0264C3.45753 11.9139 2.68546 10.5924 2.333 10.081C2.19589 9.88239 2.1446 9.81794 1.61839 9.16949ZM11.1271 9.17325V12.6322C11.1271 13.1322 11.8771 13.1322 11.8771 12.6322V9.17325C11.8771 8.67325 11.1271 8.67325 11.1271 9.17325ZM9.09552 9.17267L9.11152 12.6457C9.11382 13.1457 9.86381 13.1422 9.86151 12.6422L9.84551 9.16922C9.84321 8.66922 9.09322 8.67268 9.09552 9.17267ZM7.88641 12.6262L7.86541 9.20025C7.86234 8.70026 7.11236 8.70485 7.11542 9.20484L7.13642 12.6308C7.13949 13.1308 7.88947 13.1262 7.88641 12.6262Z" fill="white"/>
</svg>
