<svg width="20" height="20" viewBox="0 0 20 20" fill="none" xmlns="http://www.w3.org/2000/svg">
<g filter="url(#filter0_d_207_417)">
<path fill-rule="evenodd" clip-rule="evenodd" d="M5.85672 7.79133C5.87612 7.81406 5.8911 7.83668 5.90162 7.85257C6.03262 8.05034 5.95327 7.90446 5.85672 7.79133ZM17.4831 7.15562C17.5461 6.78075 17.6216 6.40691 17.6216 6.40691C17.5682 6.77773 17.4754 6.96124 17.4831 7.15562Z" fill="black"/>
<path fill-rule="evenodd" clip-rule="evenodd" d="M6.98306 15.1149C7.21052 15.3065 7.13089 15.8628 7.08392 16.1195C6.93451 16.936 10.2632 16.5863 10.6386 16.5391C11.0932 16.482 11.5614 15.9329 11.9661 15.244C12.6405 16.4427 13.3625 16.6543 14.607 16.4929C15.1326 16.4248 14.8383 15.74 14.815 15.4133C14.6857 13.5954 16.4486 12.7529 16.9094 11.1401C17.2755 9.85749 17.1935 8.465 17.4831 7.15562C17.5461 6.78075 17.6216 6.40691 17.6216 6.40691C17.8343 4.92851 15.6998 1.00031 15.6998 1.00031C13.8239 0.95987 14.5975 4.9234 14.6453 5.95152C14.6453 5.95152 14.4938 5.4287 14.3915 5.26731C13.7798 4.31267 12.1258 4.299 11.5433 5.27254C11.2902 5.69431 11.3394 4.35464 10.3879 4.35464C9.90607 4.25501 8.78361 4.27167 8.78439 4.97662C8.78451 5.08995 8.82552 5.45984 8.78439 5.76392C8.74325 6.06799 8.57736 5.72433 8.57736 5.72433C8.39462 4.42512 7.10349 3.97319 6.17196 4.97662C5.24042 5.98005 6.43334 8.65531 5.90162 7.85257C5.8911 7.83668 5.87612 7.81406 5.85672 7.79133C5.35193 7.19982 4.6506 6.61 3.85304 6.5347C2.97757 6.4506 2.14685 7.06897 2.02193 7.90353C1.82362 9.2242 3.01769 10.0916 3.69821 11.0771C4.02258 11.5478 4.81215 12.8993 4.95569 13.0807C5.59841 13.7931 6.24999 14.4924 6.98306 15.1149Z" fill="black"/>
<path fill-rule="evenodd" clip-rule="evenodd" d="M17.6216 6.40691C17.8343 4.92851 15.6998 1.00031 15.6998 1.00031C16.8317 1.02471 17.7769 1.93589 17.7413 3.0977C17.7413 4.21146 17.7378 5.30003 17.6216 6.40691Z" fill="black"/>
<path fill-rule="evenodd" clip-rule="evenodd" d="M3.69012 9.6695C3.27076 9.15255 2.74644 8.65276 2.85279 7.94444C2.91753 7.51196 3.38461 7.1643 3.87109 7.21104C5.13138 7.33003 5.5508 8.69371 6.31627 9.42439C6.59487 9.69032 6.75146 9.49046 6.72619 9.13606C6.57709 7.04522 6.55037 7.20075 6.55037 6.9065C6.55037 6.61225 6.2675 5.69099 6.72619 5.33961C7.18487 4.98823 7.59453 5.15649 7.77374 5.21029C7.95294 5.26409 8.31775 5.65284 8.41517 6.05563C8.43562 6.14017 8.44916 6.27574 8.44916 6.27574C8.44916 6.27574 8.44482 6.88378 8.44916 7.01421C8.46496 7.48999 9.16726 7.50113 9.19816 7.02609C9.2322 6.50276 8.9036 5.27216 9.59332 5.06606C9.97465 4.95272 10.6078 4.93449 10.844 5.33961C11.1648 5.89269 11.0261 6.53002 11.1966 7.10847C11.2038 7.24629 11.2038 7.24629 11.7574 7.2974C12.1545 6.8173 11.8448 6.11181 12.1575 5.59069C12.3954 5.19301 13.0259 5.20324 13.4155 5.27888C14.2966 5.45228 13.9511 6.82713 14.3309 7.38381C15.5335 8.04844 15.271 2.72507 15.2787 2.64655C15.3602 1.81904 15.7355 1.66042 15.9846 1.73449C17.7292 1.9428 16.8035 6.73853 16.6557 7.63453C16.4847 8.6712 16.3984 9.85785 16.1113 10.8638C15.7003 12.3027 14.2255 13.1977 14.1645 14.7536C14.1533 15.0828 14.1732 15.4137 14.1561 15.7418C13.9289 15.7206 13.6992 15.7516 13.4731 15.7154C13.3301 15.6924 12.9437 15.209 12.7459 14.8324C12.4437 14.256 11.7099 14.2839 11.4091 14.793C11.1378 15.2548 10.7495 15.7102 10.6342 15.7247C9.88107 15.8194 9.10576 15.7677 8.34893 15.7542C7.92003 15.7465 7.93651 15.8189 7.94529 15.7418C8.06611 14.68 7.13443 14.0464 6.41852 13.4171L5.61722 12.5264C5.52926 12.4139 4.7572 11.0924 4.40473 10.581C4.26763 10.3824 4.21634 10.3179 3.69012 9.6695ZM13.1989 9.67326V13.1323C13.1989 13.6323 13.9489 13.6323 13.9489 13.1323V9.67326C13.9489 9.17326 13.1989 9.17326 13.1989 9.67326ZM11.1673 9.67268L11.1833 13.1457C11.1856 13.6457 11.9356 13.6422 11.9332 13.1422L11.9172 9.66923C11.9149 9.16923 11.165 9.17269 11.1673 9.67268ZM9.95814 13.1263L9.93714 9.70026C9.93408 9.20027 9.18409 9.20486 9.18716 9.70485L9.20816 13.1309C9.21122 13.6308 9.96121 13.6262 9.95814 13.1263Z" fill="white"/>
</g>
<defs>
<filter id="filter0_d_207_417" x="0" y="0" width="19.7422" height="19.6537" filterUnits="userSpaceOnUse" color-interpolation-filters="sRGB">
<feFlood flood-opacity="0" result="BackgroundImageFix"/>
<feColorMatrix in="SourceAlpha" type="matrix" values="0 0 0 0 0 0 0 0 0 0 0 0 0 0 0 0 0 0 127 0" result="hardAlpha"/>
<feOffset dy="1"/>
<feGaussianBlur stdDeviation="1"/>
<feColorMatrix type="matrix" values="0 0 0 0 0 0 0 0 0 0 0 0 0 0 0 0 0 0 0.298656 0"/>
<feBlend mode="normal" in2="BackgroundImageFix" result="effect1_dropShadow_207_417"/>
<feBlend mode="normal" in="SourceGraphic" in2="effect1_dropShadow_207_417" result="shape"/>
</filter>
</defs>
</svg>
