<svg width="20" height="21" viewBox="0 0 20 21" fill="none" xmlns="http://www.w3.org/2000/svg">
<g filter="url(#filter0_d_170_866)">
<path fill-rule="evenodd" clip-rule="evenodd" d="M5.87374 8.22105C5.89314 8.24378 5.90811 8.26639 5.91863 8.28228C5.92138 8.28642 6.01369 8.2198 6.01583 8.22291C6.00549 8.20786 5.8982 8.24971 5.87374 8.22105ZM17.5001 7.58533C17.5631 7.21046 17.6386 6.83662 17.6386 6.83662C17.5853 7.20744 17.4924 7.39095 17.5001 7.58533Z" fill="black"/>
<path fill-rule="evenodd" clip-rule="evenodd" d="M5.82054 14.4501C5.97084 14.5855 6.07458 14.6828 6.39525 14.9874C6.70933 15.2857 6.86118 15.4267 7.00008 15.5446C7.058 15.5934 7.10737 15.7238 7.12694 15.9178C7.14304 16.0773 7.13744 16.2553 7.11792 16.4268C7.11117 16.4861 7.10466 16.5289 7.10093 16.5493C7.05906 16.778 7.23341 16.9894 7.46601 16.9917C7.80315 16.9952 8.14026 17.0019 8.47737 17.0078C9.63774 17.0278 10.2303 17.0223 10.6556 16.9688C11.1102 16.9117 11.5784 16.3626 11.9831 15.6737C12.3261 16.2833 12.8018 16.8786 13.2822 16.956C13.4348 16.9804 13.6194 16.9879 13.8333 16.983C14.0973 16.9769 14.3622 16.9566 14.624 16.9226C14.85 16.8933 14.9978 16.671 14.9374 16.4514C14.9244 16.4039 14.9034 16.3169 14.8823 16.2073C14.8578 16.0802 14.8401 15.9561 14.832 15.8431C14.8209 15.686 14.8359 15.5285 14.8393 15.3713C14.8404 15.3243 14.8404 15.3242 14.8418 15.2833C14.847 15.1484 14.8652 15.0201 14.9238 14.7408C14.949 14.6196 15.0711 14.3876 15.2634 14.1006C15.4293 13.853 15.6422 13.5713 15.8514 13.3132C15.9335 13.212 15.9969 13.1363 16.0322 13.0951C16.3285 12.6707 16.8104 11.976 16.9265 11.5698C17.0379 11.1794 17.127 10.4604 17.1818 9.75373C17.2118 9.35284 17.2462 8.92908 17.304 8.58283C17.3618 8.23658 17.386 8.13322 17.386 8.13322C17.386 8.13322 17.4102 7.99158 17.5001 7.58533C17.5631 7.21046 17.6386 6.83662 17.6386 6.83662C17.8513 5.35823 15.7168 1.43002 15.7168 1.43002C15.5317 1.42603 15.2446 1.49952 15.0464 1.66863C14.5759 2.06999 14.4484 3.28095 14.5358 3.6571L14.6623 6.38123C14.6623 6.38123 14.5108 5.85842 14.4086 5.69702C14.2424 5.43767 13.8144 5.10719 13.4872 5.04281C13.1507 4.97747 12.7518 4.98469 12.3855 5.04948C12.0647 5.10689 11.7452 5.39331 11.5603 5.70226C11.4924 5.8155 11.4922 5.80928 11.4901 5.74555C11.4881 5.68524 11.4845 5.57343 11.4202 5.46258C11.2371 5.14855 10.8109 4.86735 10.4049 4.78436C10.0609 4.71323 9.66693 4.74032 9.30697 4.84729C8.99888 4.93935 8.86317 5.12614 8.8014 5.21114C8.77033 5.2539 8.75797 5.2709 8.75181 5.23714C8.69022 4.89892 8.68453 4.92113 8.64615 4.67984C8.50356 3.78457 8.34404 3.16511 8.10209 2.62456C8.11601 2.65564 8.01348 2.42241 7.97617 2.34199C7.91155 2.20274 7.84707 2.0767 7.77617 1.95547C7.55765 1.58182 7.30728 1.30206 6.99308 1.14313C6.44743 0.866838 5.62969 1.0013 5.24202 1.45378C4.85704 1.90345 4.79287 2.65527 4.88983 3.58562C4.96324 4.30185 5.15511 5.00276 5.31919 5.70226C5.37378 5.93148 5.43038 6.16016 5.49351 6.3872C5.44887 6.22769 5.58394 6.70591 5.62688 6.86588C5.66771 7.01966 5.70762 7.18548 5.76998 7.46219C5.82455 7.70547 5.8688 7.95074 5.91826 8.19506C5.93415 8.27357 5.94004 8.30269 5.93603 8.30413C5.93367 8.30497 5.92786 8.29621 5.91863 8.28228C5.90811 8.26639 5.89314 8.24378 5.87374 8.22105C5.70485 8.02315 5.5608 7.87246 5.42687 7.76319C4.79244 7.24414 4.40378 7.0148 3.87006 6.96441C2.99458 6.88031 2.16387 7.49868 2.03894 8.33324C1.96211 8.84494 1.98685 9.08048 2.22357 9.53267C2.35385 9.777 2.57416 10.0721 2.9853 10.58C3.2325 10.885 3.49192 11.1834 3.71522 11.5068C3.88245 11.7495 4.17329 12.2262 4.43556 12.6561C4.68202 13.06 4.90317 13.4225 4.97271 13.5104L5.82054 14.4501Z" fill="black"/>
<path fill-rule="evenodd" clip-rule="evenodd" d="M17.6386 6.83662C17.8513 5.35823 15.7168 1.43002 15.7168 1.43002C15.971 1.4355 16.3381 1.51403 16.5118 1.59832C16.779 1.72795 17.7996 2.18142 17.7583 3.52741C17.7583 4.40279 17.7583 5.02667 17.7583 5.69702L17.6386 6.83662Z" fill="black"/>
<path fill-rule="evenodd" clip-rule="evenodd" d="M3.7077 10.0992C3.28834 9.58223 2.76402 9.08244 2.87037 8.37411C2.93511 7.94164 3.40219 7.59398 3.88867 7.64071C5.14896 7.7597 5.56838 9.12339 6.33385 9.85407C6.61245 10.12 7.01588 9.89603 6.99061 9.54162C6.84151 7.45078 5.93801 5.51077 5.72557 3.4382C5.65011 2.71398 5.70218 2.10401 5.9014 1.87131C6.05695 1.68974 6.49781 1.61725 6.74412 1.74198C6.96615 1.8543 7.18393 2.15277 7.38555 2.58733C7.85687 3.60317 7.98217 4.71029 8.18306 5.80206C8.48446 7.4374 8.4624 7.31345 8.46674 7.44388C8.48254 7.91967 9.18484 7.93081 9.21574 7.45577C9.24978 6.93244 8.92118 5.70183 9.61089 5.49573C9.99223 5.3824 10.6254 5.36416 10.8616 5.76929C11.1824 6.32237 11.0437 6.9597 11.2141 7.53815C11.2214 7.67597 11.2214 7.67597 11.775 7.72708C12.1721 7.24697 11.8624 6.54149 12.1751 6.02037C12.413 5.62269 13.0435 5.63292 13.433 5.70856C14.3142 5.88196 13.9687 7.25681 14.3484 7.81349C15.5511 8.47812 15.2885 3.15475 15.2963 3.07623C15.3777 2.24872 15.7531 2.0901 16.0022 2.16417C17.7468 2.37248 16.8211 7.16821 16.6733 8.06421C16.5023 9.10088 16.416 10.2875 16.1289 11.2935C15.7178 12.7323 14.2431 13.6274 14.1821 15.1833C14.1709 15.5125 14.1907 15.8433 14.1737 16.1715C13.9465 16.1502 13.7167 16.1812 13.4907 16.1451C13.3476 16.1221 12.9613 15.6387 12.7635 15.2621C12.4613 14.6856 11.7275 14.7136 11.4267 15.2227C11.1554 15.6845 10.767 16.1399 10.6517 16.1544C9.89865 16.2491 9.12334 16.1973 8.36651 16.1839C7.93761 16.1762 7.95409 16.2486 7.96287 16.1715C8.08369 15.1097 7.15201 14.476 6.4361 13.8468L5.6348 12.9561C5.54684 12.8436 4.77478 11.5221 4.42231 11.0106C4.2852 10.8121 4.23392 10.7476 3.7077 10.0992ZM13.2164 10.1029V13.5619C13.2164 14.0619 13.9664 14.0619 13.9664 13.5619V10.1029C13.9664 9.60293 13.2164 9.60293 13.2164 10.1029ZM11.1848 10.1024L11.2008 13.5754C11.2031 14.0754 11.9531 14.0719 11.9508 13.5719L11.9348 10.0989C11.9325 9.59891 11.1825 9.60237 11.1848 10.1024ZM9.97572 13.5559L9.95472 10.1299C9.95166 9.62994 9.20167 9.63454 9.20474 10.1345L9.22574 13.5605C9.2288 14.0605 9.97879 14.0559 9.97572 13.5559Z" fill="white"/>
</g>
<defs>
<filter id="filter0_d_170_866" x="0" y="0" width="19.7598" height="20.0184" filterUnits="userSpaceOnUse" color-interpolation-filters="sRGB">
<feFlood flood-opacity="0" result="BackgroundImageFix"/>
<feColorMatrix in="SourceAlpha" type="matrix" values="0 0 0 0 0 0 0 0 0 0 0 0 0 0 0 0 0 0 127 0" result="hardAlpha"/>
<feOffset dy="1"/>
<feGaussianBlur stdDeviation="1"/>
<feColorMatrix type="matrix" values="0 0 0 0 0 0 0 0 0 0 0 0 0 0 0 0 0 0 0.298656 0"/>
<feBlend mode="normal" in2="BackgroundImageFix" result="effect1_dropShadow_170_866"/>
<feBlend mode="normal" in="SourceGraphic" in2="effect1_dropShadow_170_866" result="shape"/>
</filter>
</defs>
</svg>
